<svg width="51" height="50" viewBox="0 0 51 50" fill="none" xmlns="http://www.w3.org/2000/svg">
<path d="M46.9096 11.6856C44.0615 7.15944 39.8372 3.66578 34.8569 1.71774C29.8767 -0.230296 24.4031 -0.530048 19.2399 0.862512C14.0767 2.25507 9.49612 5.26655 6.17086 9.45467C2.84561 13.6428 0.950932 18.7868 0.765099 24.1312C0.579266 29.4757 2.11207 34.7389 5.1384 39.1479C8.16472 43.5568 12.5251 46.8792 17.5791 48.627C22.633 50.3748 28.1143 50.456 33.2178 48.8586C38.3213 47.2612 42.7781 44.0694 45.9337 39.7519L25.75 25L46.9096 11.6856Z" fill="#CC3333"/>
<path d="M31.75 11C31.75 12.6569 30.4069 14 28.75 14C27.0931 14 25.75 12.6569 25.75 11C25.75 9.34315 27.0931 8 28.75 8C30.4069 8 31.75 9.34315 31.75 11Z" fill="black"/>
</svg>
