<svg width="48" height="50" viewBox="0 0 48 50" fill="none" xmlns="http://www.w3.org/2000/svg">
<path d="M11.8125 30.6875C13.0208 31.8958 14.5 32.5 16.25 32.5C18 32.5 19.4792 31.8958 20.6875 30.6875L30.6875 20.6875C31.8958 19.4792 32.5 18 32.5 16.25C32.5 14.5 31.8958 13.0208 30.6875 11.8125C29.4792 10.6042 28 10 26.25 10C24.5 10 23.0208 10.6042 21.8125 11.8125C20.2708 11.2708 18.75 11.1458 17.25 11.4375C15.75 11.7292 14.4792 12.3958 13.4375 13.4375C12.3958 14.4792 11.7292 15.75 11.4375 17.25C11.1458 18.75 11.2708 20.2708 11.8125 21.8125C10.6042 23.0208 10 24.5 10 26.25C10 28 10.6042 29.4792 11.8125 30.6875ZM7.5 50V39.25C5.125 37.0833 3.28125 34.5521 1.96875 31.6562C0.65625 28.7604 0 25.7083 0 22.5C0 16.25 2.1875 10.9375 6.5625 6.5625C10.9375 2.1875 16.25 0 22.5 0C27.7083 0 32.3229 1.53125 36.3438 4.59375C40.3646 7.65625 42.9792 11.6458 44.1875 16.5625L47.4375 29.375C47.6458 30.1667 47.5 30.8854 47 31.5312C46.5 32.1771 45.8333 32.5 45 32.5H40V40C40 41.375 39.5104 42.5521 38.5312 43.5312C37.5521 44.5104 36.375 45 35 45H30V50H25V40H35V27.5H41.75L39.375 17.8125C38.4167 14.0208 36.375 10.9375 33.25 8.5625C30.125 6.1875 26.5417 5 22.5 5C17.6667 5 13.5417 6.6875 10.125 10.0625C6.70833 13.4375 5 17.5417 5 22.375C5 24.875 5.51042 27.25 6.53125 29.5C7.55208 31.75 9 33.75 10.875 35.5L12.5 37V50H7.5Z" fill="black"/>
</svg>
