<?xml version="1.0" encoding="UTF-8"?>
<svg xmlns="http://www.w3.org/2000/svg" xmlns:xlink="http://www.w3.org/1999/xlink" width="50px" height="50px" viewBox="0 0 50 50" version="1.1">
<g id="surface1">
<path style=" stroke:none;fill-rule:nonzero;fill:rgb(60.000002%,0%,0%);fill-opacity:1;" d="M 13.558594 20.964844 L 19.550781 20.886719 L 19.996094 21.003906 C 22.097656 22.214844 23.980469 23.726562 25.609375 25.523438 C 27.757812 22.066406 30.046875 18.890625 32.464844 15.972656 C 35.113281 12.773438 37.925781 9.871094 40.878906 7.21875 L 41.464844 6.996094 L 48 6.996094 L 46.683594 8.460938 C 42.632812 12.960938 38.957031 17.613281 35.636719 22.410156 C 32.3125 27.210938 29.34375 32.167969 26.703125 37.269531 L 25.882812 38.855469 L 25.125 37.238281 C 22.371094 31.320312 18.484375 26.28125 13.070312 22.566406 Z M 25 0 C 28.753906 0 32.4375 0.835938 35.824219 2.460938 C 36.039062 2.566406 36.132812 2.832031 36.03125 3.050781 C 36 3.113281 35.957031 3.164062 35.90625 3.207031 L 32.238281 6.207031 C 32.113281 6.3125 31.9375 6.339844 31.78125 6.277344 C 29.609375 5.488281 27.316406 5.09375 25.003906 5.09375 C 19.703125 5.09375 14.671875 7.171875 10.925781 10.921875 C 7.179688 14.675781 5.097656 19.695312 5.097656 25 C 5.097656 30.304688 7.175781 35.328125 10.925781 39.074219 C 14.679688 42.824219 19.699219 44.90625 25.003906 44.90625 C 30.308594 44.90625 35.335938 42.824219 39.078125 39.074219 C 42.828125 35.328125 44.90625 30.300781 44.90625 25 C 44.90625 23.710938 44.789062 22.441406 44.542969 21.175781 C 44.515625 21.039062 44.554688 20.898438 44.640625 20.800781 L 47.875 16.703125 C 48.027344 16.515625 48.308594 16.484375 48.496094 16.636719 C 48.566406 16.695312 48.617188 16.769531 48.640625 16.851562 C 49.542969 19.472656 50 22.230469 50 25 C 50 31.644531 47.375 37.976562 42.679688 42.675781 C 37.980469 47.371094 31.644531 50 25.003906 50 C 18.363281 50 12.027344 47.371094 7.328125 42.675781 L 7.308594 42.65625 C 2.617188 37.957031 0 31.640625 0 25 C 0 18.359375 2.625 12.023438 7.320312 7.324219 L 7.34375 7.308594 C 12.039062 2.621094 18.359375 0 25 0 Z M 25 0 "/>
</g>
</svg>
