<svg width="30" height="30" viewBox="0 0 30 30" fill="none" xmlns="http://www.w3.org/2000/svg">
<path d="M13.9445 0.77621C13.9638 0.781731 13.9831 0.787252 14.0186 0.797249C14.0497 0.801237 14.0645 0.80075 14.0794 0.800262C14.1611 0.815767 14.2428 0.831273 14.3397 0.850794C14.3702 0.85406 14.3853 0.85331 14.4005 0.852559C14.7062 0.855797 15.012 0.859035 15.3379 0.862203C15.3805 0.856796 15.403 0.851459 15.4254 0.846122C15.9068 0.779751 16.3752 0.678236 16.8279 0.48483C17.1758 0.336172 17.5514 0.252061 17.9318 0.136292C17.9628 0.127693 17.9768 0.122048 17.9907 0.116404C18.0109 0.114225 18.031 0.112045 18.0674 0.107596C18.0977 0.0998706 18.1117 0.0944155 18.1257 0.0889604C18.1458 0.0868984 18.1659 0.0848365 18.2023 0.0809041C18.2327 0.0738491 18.2468 0.0686645 18.2609 0.0634798C18.2895 0.0605014 18.318 0.0575231 18.3635 0.0529057C18.3946 0.0462398 18.4087 0.041213 18.4229 0.036186C18.46 0.0327302 18.497 0.0292746 18.5528 0.0254705C18.594 0.0202231 18.6166 0.0153243 18.6391 0.0104256C18.8831 0.0109352 19.1271 0.0114446 19.3895 0.0151584C19.431 0.0175999 19.4542 0.0168372 19.4774 0.0160745C19.5421 0.0233375 19.6067 0.0306005 19.6867 0.0414589C19.717 0.0441817 19.7321 0.043309 19.7473 0.0424361C19.8391 0.058777 19.9309 0.0751179 20.0395 0.0960186C20.0713 0.10078 20.0863 0.100982 20.1012 0.101184C20.6049 0.227152 21.0875 0.4061 21.5423 0.659992C22.5944 1.24741 23.3266 2.11832 23.7749 3.22406C24.1621 4.17887 24.729 4.98984 25.5855 5.56946C25.9292 5.80203 26.3088 5.98918 26.6893 6.158C27.4461 6.49372 28.1554 6.89544 28.6965 7.53506C30.0038 9.08023 30.347 10.8079 29.6468 12.7237C29.5126 13.0909 29.3518 13.4507 29.2481 13.8263C28.9516 14.9002 29.0341 15.9633 29.4592 16.9854C29.6218 17.3763 29.8052 17.7558 29.8886 18.1725C30.2263 19.8614 29.8118 21.3449 28.6576 22.6203C28.1186 23.2157 27.4512 23.6186 26.7096 23.9165C25.4826 24.4093 24.5848 25.2551 24.0282 26.461C23.7778 27.0036 23.531 27.5482 23.1566 28.0242C22.5177 28.8367 21.7111 29.4017 20.7294 29.7234C19.5208 30.1196 18.3385 30.0409 17.1751 29.5459C16.4285 29.2283 15.6533 29.0571 14.8376 29.101C14.1844 29.1362 13.5584 29.2778 12.9599 29.5497C12.2269 29.8828 11.4505 30.0498 10.6493 29.987C8.65094 29.8303 7.20466 28.847 6.34886 27.0224C6.10654 26.5058 5.89603 25.9735 5.55455 25.5087C4.97146 24.715 4.22256 24.1368 3.30237 23.7883C2.21415 23.376 1.33161 22.7061 0.733643 21.7028C-0.088126 20.3241 -0.216926 18.8691 0.334108 17.3588C0.522033 16.8438 0.733383 16.3366 0.824427 15.7912C0.991288 14.7916 0.865144 13.8279 0.466625 12.8993C-0.295644 11.1233 -0.123573 9.43759 0.981327 7.85979C1.52199 7.08772 2.25018 6.52961 3.12559 6.16919C3.75298 5.91089 4.34411 5.59465 4.8445 5.12393C5.31931 4.67727 5.69255 4.16255 5.97026 3.57264C6.21108 3.0611 6.42025 2.53215 6.76785 2.0762C7.61953 0.959046 8.72888 0.265998 10.1218 0.0540254C10.6383 -0.0245921 11.157 -0.0198257 11.6771 0.0842748C12.1739 0.183717 12.638 0.367116 13.1074 0.545012C13.3529 0.638039 13.6131 0.692132 13.8831 0.769002C13.9146 0.774867 13.9295 0.775538 13.9445 0.77621ZM21.0018 8.92419C20.8825 8.82286 20.7626 8.72218 20.644 8.62003C20.5163 8.51009 20.5023 8.51096 20.3919 8.64289C19.7688 9.38809 19.147 10.1345 18.5219 10.878C17.7866 11.7526 17.0489 12.6251 16.311 13.4975C15.7393 14.1733 15.1647 14.8466 14.5931 15.5225C14.1342 16.0652 13.678 16.6101 13.2131 17.163C13.1435 17.107 13.0806 17.0584 13.02 17.0073C12.4695 16.5433 11.919 16.0793 11.3694 15.6143C10.6385 14.996 9.90706 14.3783 9.17963 13.7559C9.09796 13.686 9.05682 13.6888 8.98885 13.7696C8.37784 14.4959 7.76387 15.2198 7.14806 15.942C7.09431 16.0051 7.09259 16.0472 7.15649 16.0966C7.1884 16.1213 7.21589 16.1516 7.24691 16.1776C7.78239 16.6255 8.31936 17.0716 8.85345 17.5211C9.45629 18.0285 10.0556 18.5401 10.6582 19.0478C11.3772 19.6534 12.0979 20.257 12.818 20.8612C13.0696 21.0723 13.3217 21.2827 13.5853 21.5033C16.6878 17.8331 19.781 14.1739 22.8758 10.5127C22.2447 9.97785 21.6305 9.45737 21.0018 8.92419Z" fill="#C91616"/>
<path d="M21.0094 8.93053C21.6308 9.45736 22.2449 9.97783 22.8761 10.5127C19.7813 14.1739 16.6881 17.8331 13.5856 21.5033C13.322 21.2827 13.0699 21.0723 12.8183 20.8612C12.0982 20.2569 11.3775 19.6534 10.6585 19.0477C10.0559 18.5401 9.45657 18.0285 8.85373 17.5211C8.31964 17.0716 7.78267 16.6254 7.24719 16.1776C7.21617 16.1516 7.18868 16.1213 7.15677 16.0966C7.09287 16.0472 7.09459 16.0051 7.14834 15.942C7.76415 15.2197 8.37812 14.4959 8.98913 13.7695C9.0571 13.6888 9.09824 13.686 9.17991 13.7559C9.90735 14.3782 10.6387 14.996 11.3696 15.6143C11.9193 16.0793 12.4698 16.5432 13.0202 17.0073C13.0809 17.0584 13.1437 17.107 13.2133 17.163C13.6783 16.6101 14.1345 16.0652 14.5934 15.5225C15.1649 14.8466 15.7396 14.1733 16.3113 13.4974C17.0492 12.6251 17.7868 11.7526 18.5222 10.878C19.1473 10.1345 19.769 9.38808 20.3922 8.64287C20.5025 8.51095 20.5166 8.51008 20.6443 8.62002C20.7629 8.72216 20.8828 8.82285 21.0094 8.93053ZM11.9144 19.2011C11.9848 19.2552 12.0758 19.2957 12.1223 19.3658C12.3528 19.7131 12.6748 19.9517 13.0255 20.1598C13.1249 20.2189 13.2471 20.2596 13.3167 20.3437C13.3903 20.4326 13.4756 20.4683 13.5728 20.4984C13.6325 20.517 13.6974 20.5204 13.7553 20.5428C13.8823 20.5921 13.9877 20.5502 14.0764 20.4661C14.2386 20.3124 14.404 20.1601 14.5501 19.9916C14.9572 19.5221 15.3556 19.0452 15.7564 18.5704C16.1834 18.0644 16.6059 17.5547 17.0364 17.0517C17.3617 16.6717 17.6977 16.3009 18.0264 15.9236C18.235 15.6842 18.4447 15.4451 18.6433 15.1974C18.851 14.9382 19.0378 14.6621 19.2487 14.4056C19.4885 14.114 19.7484 13.839 19.993 13.5513C20.2943 13.1969 20.5875 12.8357 20.8869 12.4796C21.1078 12.2169 21.3247 11.9502 21.5585 11.6992C21.8061 11.4334 22.0514 11.1763 22.1221 10.7968C22.16 10.5932 22.1417 10.5492 21.9301 10.5153C21.7908 10.493 21.6356 10.4777 21.5221 10.4051C21.2885 10.2556 21.066 10.094 20.778 10.0761C20.7006 10.0713 20.6129 10.066 20.5454 10.0958C20.2347 10.2334 19.9269 10.3784 19.6243 10.533C19.5618 10.5649 19.5081 10.6419 19.4812 10.7102C19.4133 10.8828 19.3925 11.0805 19.298 11.2345C19.185 11.4187 19.0846 11.6166 18.8923 11.7541C18.7644 11.8456 18.6389 11.9958 18.5986 12.1432C18.5093 12.4699 18.2518 12.6736 18.0848 12.9409C18.0013 13.0746 17.8503 13.1552 17.7447 13.2872C17.4414 13.6661 17.0932 14.0089 16.7715 14.3736C16.5506 14.6239 16.345 14.8879 16.131 15.1444C16.0593 15.2304 15.9872 15.3167 15.9074 15.3949C15.7617 15.5377 15.5957 15.6616 15.5052 15.8529C15.492 15.8807 15.4739 15.92 15.4503 15.9268C15.3077 15.9678 15.2773 16.098 15.2145 16.2041C15.1783 16.2651 15.1357 16.3234 15.0887 16.3766C14.9085 16.5807 14.7251 16.782 14.5433 16.9847C14.3348 17.2172 14.1449 17.4704 13.9137 17.6775C13.6601 17.9047 13.3357 17.9795 13.007 17.8727C12.8434 17.8195 12.6955 17.702 12.556 17.5937C12.3337 17.4211 12.1251 17.2306 11.909 17.0497C11.65 16.8329 11.362 16.6471 11.1729 16.3558C11.1589 16.3343 11.1341 16.3194 11.1132 16.3028C10.9404 16.1654 10.7414 16.0505 10.6008 15.8857C10.405 15.6563 10.1545 15.5033 9.92223 15.3265C9.80975 15.241 9.65243 15.2131 9.51393 15.1632C9.30677 15.0886 9.09846 15.0113 8.90109 15.1904C8.88246 15.2073 8.85187 15.2103 8.82851 15.2229C8.70385 15.2899 8.57509 15.3507 8.45646 15.4272C8.26052 15.5535 8.2165 15.986 8.33329 16.1221C8.42335 16.2271 8.51527 16.3306 8.60874 16.4326C8.68981 16.521 8.77665 16.6042 8.85655 16.6936C8.95524 16.8041 9.03914 16.9301 9.1485 17.0281C9.24998 17.119 9.37897 17.1785 9.4915 17.258C9.64562 17.3669 9.79966 17.4766 9.9465 17.595C10.1864 17.7884 10.427 17.9818 10.655 18.1888C10.8347 18.3519 11.0268 18.499 11.1977 18.6763C11.3958 18.8818 11.6616 19.022 11.9144 19.2011Z" fill="#FEFEFE"/>
<path d="M11.906 19.1959C11.6614 19.0221 11.3956 18.8818 11.1975 18.6763C11.0266 18.4991 10.8345 18.352 10.6548 18.1889C10.4268 17.9819 10.1862 17.7884 9.9463 17.595C9.79946 17.4767 9.64542 17.3669 9.4913 17.258C9.37877 17.1785 9.24978 17.119 9.1483 17.0281C9.03894 16.9301 8.95504 16.8041 8.85635 16.6937C8.77645 16.6042 8.68961 16.521 8.60854 16.4326C8.51507 16.3306 8.42315 16.2272 8.33309 16.1222C8.2163 15.986 8.26032 15.5536 8.45626 15.4272C8.57489 15.3507 8.70365 15.2899 8.82831 15.2229C8.85167 15.2103 8.88226 15.2073 8.90089 15.1904C9.09826 15.0114 9.30657 15.0887 9.51373 15.1632C9.65223 15.2131 9.80955 15.241 9.92203 15.3266C10.1543 15.5033 10.4048 15.6563 10.6006 15.8858C10.7412 16.0506 10.9402 16.1654 11.113 16.3029C11.1339 16.3195 11.1587 16.3343 11.1727 16.3559C11.3618 16.6472 11.6498 16.8329 11.9088 17.0498C12.1249 17.2306 12.3335 17.4211 12.5558 17.5938C12.6953 17.7021 12.8432 17.8195 13.0068 17.8727C13.3355 17.9796 13.6599 17.9047 13.9135 17.6775C14.1447 17.4705 14.3346 17.2173 14.5431 16.9847C14.7249 16.782 14.9083 16.5807 15.0885 16.3766C15.1355 16.3235 15.1781 16.2651 15.2143 16.2041C15.2771 16.098 15.3075 15.9678 15.4501 15.9269C15.4737 15.9201 15.4918 15.8808 15.505 15.853C15.5955 15.6616 15.7615 15.5378 15.9072 15.395C15.987 15.3168 16.0591 15.2304 16.1308 15.1444C16.3448 14.8879 16.5504 14.624 16.7713 14.3736C17.093 14.0089 17.4412 13.6661 17.7445 13.2872C17.8501 13.1553 18.0011 13.0746 18.0846 12.9409C18.2516 12.6736 18.5091 12.47 18.5984 12.1433C18.6387 11.9958 18.7642 11.8456 18.8921 11.7542C19.0844 11.6167 19.1848 11.4187 19.2978 11.2345C19.3923 11.0805 19.4131 10.8829 19.481 10.7102C19.5079 10.6419 19.5616 10.5649 19.6241 10.533C19.9267 10.3785 20.2345 10.2335 20.5452 10.0959C20.6127 10.066 20.7004 10.0713 20.7778 10.0761C21.0658 10.0941 21.2883 10.2557 21.5219 10.4051C21.6354 10.4777 21.7906 10.493 21.9299 10.5153C22.1415 10.5493 22.1598 10.5933 22.1219 10.7968C22.0512 11.1763 21.8059 11.4334 21.5583 11.6993C21.3245 11.9502 21.1076 12.217 20.8867 12.4797C20.5873 12.8357 20.2941 13.197 19.9928 13.5513C19.7482 13.8391 19.4883 14.114 19.2485 14.4056C19.0376 14.6621 18.8508 14.9382 18.6431 15.1974C18.4445 15.4452 18.2348 15.6842 18.0262 15.9237C17.6975 16.3009 17.3615 16.6717 17.0362 17.0518C16.6057 17.5547 16.1832 18.0644 15.7562 18.5704C15.3554 19.0453 14.957 19.5222 14.5499 19.9916C14.4038 20.1601 14.2384 20.3124 14.0762 20.4662C13.9875 20.5502 13.8821 20.5921 13.7551 20.5429C13.6972 20.5205 13.6323 20.517 13.5726 20.4985C13.4754 20.4683 13.3901 20.4326 13.3165 20.3437C13.2469 20.2597 13.1247 20.2189 13.0253 20.1599C12.6746 19.9517 12.3526 19.7132 12.1221 19.3658C12.0756 19.2958 11.9846 19.2553 11.906 19.1959ZM13.2985 19.9838C13.3947 20.0177 13.4962 20.0413 13.5857 20.088C13.7178 20.1568 13.8421 20.1719 13.9592 20.0716C14.0535 19.9907 14.1266 19.8792 14.2304 19.8165C14.5137 19.6452 14.667 19.3693 14.8223 19.1005C14.8972 18.9709 14.9724 18.8585 15.084 18.7566C15.189 18.6607 15.3384 18.5895 15.3583 18.4159C15.3623 18.3807 15.4127 18.3495 15.4442 18.319C15.7668 18.0055 16.1017 17.7035 16.4089 17.3755C16.6145 17.156 16.7813 16.9 16.9645 16.6597C16.9775 16.6426 16.9818 16.6192 16.9922 16.5999C17.0214 16.5455 17.0434 16.4843 17.0832 16.439C17.2074 16.2981 17.3381 16.1628 17.4677 16.0268C17.4857 16.0078 17.5143 15.9992 17.5342 15.9815C17.6363 15.89 17.7378 15.7977 17.8383 15.7043C17.8801 15.6653 17.9171 15.6211 17.9593 15.5826C18.0876 15.4659 18.2201 15.3538 18.3454 15.2339C18.4191 15.1634 18.4725 15.0693 18.5522 15.0082C18.6531 14.9309 18.7383 14.8613 18.7259 14.7162C18.7189 14.6332 18.7359 14.5472 18.7485 14.4635C18.7828 14.2374 18.8143 14.0139 18.9979 13.8424C19.2513 13.6057 19.4947 13.3583 19.739 13.1121C19.8204 13.03 19.8874 12.9337 19.9678 12.8505C20.1256 12.6873 20.2854 12.5258 20.4496 12.3692C20.5488 12.2746 20.6712 12.2019 20.7597 12.0993C20.8875 11.9511 21.0042 11.7909 21.1076 11.6247C21.3033 11.3099 21.592 11.065 21.7646 10.7331C21.8099 10.646 21.8212 10.598 21.7015 10.5987C21.6791 10.5988 21.656 10.5987 21.6344 10.5936C21.1654 10.4824 20.6882 10.5175 20.2141 10.5225C19.961 10.5251 19.9167 10.5925 19.8796 10.8328C19.8594 10.963 19.813 11.0892 19.7793 11.2174C19.646 11.725 19.2455 12.0044 18.8623 12.301C18.8098 12.3417 18.7628 12.4151 18.7522 12.4798C18.7219 12.6644 18.7148 12.8527 18.6908 13.0386C18.6863 13.074 18.6526 13.1126 18.622 13.1365C18.4923 13.2376 18.3499 13.3239 18.2287 13.4339C18.056 13.5905 17.8975 13.7629 17.7334 13.929C17.4756 14.1902 17.2093 14.4436 16.9636 14.7157C16.7738 14.9259 16.6141 15.1631 16.4334 15.3819C16.3214 15.5175 16.1931 15.6395 16.0761 15.7711C16.0258 15.8276 15.99 15.8969 15.9403 15.9539C15.7629 16.1575 15.5772 16.354 15.4046 16.5614C15.2739 16.7184 15.1628 16.8914 15.035 17.0509C14.829 17.308 14.6292 17.5722 14.4016 17.8092C14.2689 17.9475 14.0943 18.0511 13.9253 18.1469C13.812 18.2111 13.6706 18.2236 13.5504 18.2781C13.314 18.3851 13.0822 18.2626 12.8594 18.2413C12.6347 18.2197 12.3587 18.1232 12.252 17.8445C12.2441 17.8238 12.2102 17.8133 12.1891 17.7971C12.1058 17.7327 12.0231 17.6675 11.9395 17.6034C11.8899 17.5653 11.8392 17.5285 11.7888 17.4913C11.7006 17.4261 11.6089 17.3653 11.5249 17.295C11.3822 17.1755 11.2389 17.0557 11.1061 16.9256C10.9896 16.8114 10.8881 16.682 10.778 16.561C10.7361 16.515 10.6895 16.4731 10.6439 16.4306C10.4481 16.2479 10.2578 16.0587 10.0539 15.8856C9.91518 15.7678 9.78292 15.621 9.55759 15.695C9.45774 15.7277 9.35155 15.7059 9.25558 15.6277C9.11077 15.5097 8.87557 15.5657 8.77293 15.7237C8.72907 15.7913 8.722 15.8538 8.774 15.9214C8.84475 16.0133 8.91519 16.1059 8.97896 16.2027C9.07745 16.3522 9.1449 16.5322 9.27091 16.6512C9.49393 16.8618 9.7499 17.0378 9.99442 17.2253C10.1254 17.3257 10.2646 17.4157 10.3942 17.5178C10.5523 17.6423 10.7034 17.7755 10.859 17.9032C11.0479 18.0583 11.241 18.2084 11.4275 18.3664C11.6043 18.5161 11.7737 18.6745 11.9485 18.8265C12.0651 18.9278 12.1905 19.0193 12.3033 19.1245C12.551 19.3553 12.7287 19.6602 13.0466 19.8175C13.1302 19.8588 13.2042 19.9194 13.2985 19.9838Z" fill="#FCFDFD"/>
<path d="M13.2904 19.9774C13.2041 19.9193 13.13 19.8588 13.0464 19.8174C12.7285 19.6601 12.5508 19.3553 12.3031 19.1244C12.1903 19.0193 12.0649 18.9277 11.9483 18.8264C11.7735 18.6745 11.6041 18.5161 11.4273 18.3664C11.2408 18.2084 11.0478 18.0582 10.8588 17.9032C10.7032 17.7755 10.5521 17.6422 10.394 17.5178C10.2644 17.4156 10.1253 17.3257 9.99425 17.2252C9.74972 17.0378 9.49376 16.8618 9.27074 16.6511C9.14473 16.5321 9.07727 16.3521 8.97879 16.2026C8.91501 16.1058 8.84457 16.0132 8.77382 15.9213C8.72182 15.8537 8.72889 15.7912 8.77275 15.7237C8.87539 15.5656 9.11059 15.5097 9.2554 15.6276C9.35137 15.7058 9.45756 15.7277 9.55742 15.6949C9.78274 15.621 9.915 15.7678 10.0537 15.8856C10.2576 16.0587 10.448 16.2478 10.6437 16.4305C10.6893 16.4731 10.7359 16.5149 10.7778 16.561C10.8879 16.6819 10.9894 16.8113 11.106 16.9255C11.2387 17.0557 11.382 17.1755 11.5248 17.295C11.6087 17.3652 11.7005 17.4261 11.7886 17.4913C11.839 17.5285 11.8897 17.5653 11.9393 17.6034C12.0229 17.6675 12.1056 17.7327 12.189 17.797C12.21 17.8133 12.2439 17.8237 12.2518 17.8445C12.3585 18.1231 12.6346 18.2197 12.8592 18.2412C13.082 18.2626 13.3138 18.3851 13.5502 18.278C13.6705 18.2236 13.8118 18.2111 13.9251 18.1469C14.0941 18.0511 14.2687 17.9474 14.4014 17.8092C14.629 17.5721 14.8288 17.308 15.0349 17.0509C15.1626 16.8914 15.2737 16.7183 15.4044 16.5614C15.577 16.354 15.7627 16.1574 15.9401 15.9539C15.9899 15.8968 16.0257 15.8276 16.0759 15.771C16.1929 15.6394 16.3212 15.5175 16.4332 15.3819C16.614 15.163 16.7736 14.9259 16.9634 14.7157C17.2091 14.4436 17.4754 14.1901 17.7332 13.929C17.8973 13.7628 18.0558 13.5905 18.2285 13.4338C18.3497 13.3239 18.4921 13.2375 18.6218 13.1364C18.6524 13.1126 18.6861 13.074 18.6906 13.0386C18.7146 12.8527 18.7217 12.6644 18.7521 12.4797C18.7627 12.4151 18.8096 12.3417 18.8621 12.301C19.2453 12.0043 19.6458 11.7249 19.7791 11.2174C19.8128 11.0891 19.8593 10.963 19.8794 10.8327C19.9165 10.5925 19.9608 10.5251 20.2139 10.5224C20.6881 10.5175 21.1653 10.4824 21.6342 10.5935C21.6558 10.5987 21.6789 10.5988 21.7013 10.5986C21.821 10.5979 21.8097 10.646 21.7644 10.7331C21.5918 11.065 21.3032 11.3099 21.1074 11.6247C21.004 11.7909 20.8873 11.9511 20.7595 12.0992C20.671 12.2019 20.5486 12.2746 20.4495 12.3691C20.2852 12.5257 20.1254 12.6872 19.9677 12.8505C19.8873 12.9337 19.8203 13.03 19.7388 13.1121C19.4946 13.3583 19.2511 13.6057 18.9978 13.8424C18.8142 14.0139 18.7826 14.2374 18.7483 14.4635C18.7357 14.5471 18.7187 14.6331 18.7258 14.7162C18.7381 14.8613 18.6529 14.9309 18.552 15.0082C18.4723 15.0693 18.4189 15.1634 18.3452 15.2339C18.22 15.3537 18.0874 15.4658 17.9592 15.5826C17.9169 15.621 17.88 15.6653 17.8381 15.7042C17.7376 15.7976 17.6361 15.8899 17.534 15.9814C17.5142 15.9992 17.4856 16.0077 17.4675 16.0267C17.3379 16.1628 17.2073 16.2981 17.0831 16.439C17.0432 16.4842 17.0213 16.5455 16.992 16.5999C16.9816 16.6192 16.9773 16.6426 16.9643 16.6596C16.7811 16.9 16.6143 17.156 16.4087 17.3755C16.1015 17.7034 15.7666 18.0054 15.444 18.3189C15.4125 18.3495 15.3621 18.3807 15.3581 18.4159C15.3382 18.5895 15.1888 18.6606 15.0838 18.7565C14.9722 18.8585 14.897 18.9709 14.8222 19.1004C14.6669 19.3692 14.5135 19.6452 14.2302 19.8164C14.1264 19.8792 14.0533 19.9907 13.959 20.0715C13.842 20.1719 13.7177 20.1568 13.5855 20.0879C13.496 20.0413 13.3945 20.0177 13.2904 19.9774Z" fill="#FBFBFC"/>
</svg>
